<svg version="1" xmlns="http://www.w3.org/2000/svg" width="324" height="324" viewBox="0 0 243.000000 243.000000"><path d="M171.6 34.6c-.9.8-1.6 2.2-1.6 3.1 0 2.2-5.1 24.6-5.8 25.8-.4.5-.7 1.4-.8 2-.4 2.3-2.4 6.5-3 6.5-.4 0-.4-.3-.1-.6 1-1-9.8-9.1-15.2-11.5-16.7-7.5-38.9-7.5-55.1-.2-17.4 7.9-30.5 24.8-35.5 45.9-1.8 7.4-3.4 15.6-4 19.9-.3 2.7-.8 5.9-1.1 7-.2 1.1-.6 3.6-.9 5.5-.4 3-.9 5.2-3 13-1.3 5.1-5 14.2-8.5 21.3-4.8 9.5-4.9 13.4-.3 15.4 13 5.6 24.8 9.8 30.4 10.8 1.8.3 3.5.8 3.9 1 .4.2 2 .7 3.6.9 1.6.3 4 .8 5.4 1.1 12.9 2.8 44 4.1 55.9 2.4 14.9-2.1 21.8-4.5 23.7-8 1.2-2.5 1.1-2.9-1.1-5.3-1.5-1.6-3.5-2.6-5.2-2.6-5.2 0-10.5-2.2-14.5-5.9-3.7-3.4-4-4.2-4.5-10.2-.7-8.2.8-12.9 5.3-17.5 4.4-4.4 9.5-6.5 16-6.5 15.5-.2 24.7 14.2 17.6 27.9-4.5 8.9-.8 13.2 8.5 9.7 2.5-1 5.3-2.5 6.3-3.4.9-.9 3.6-3.3 5.8-5.3 2.3-2.1 4.2-4.2 4.2-4.7s.4-1.1.8-1.3c.5-.2 2.3-3.4 4.1-7.3 10.9-23.2 7.5-54.8-7.5-70.1-4.7-4.7-12.6-9.4-16.5-9.7-1.1-.1-1.9-.4-1.9-.8 0-1.3 5.3-8.9 6.2-8.9.4 0 .8-.6.8-1.3 0-.7.8-2 1.8-2.8.9-.9 2.9-3.1 4.4-5 1.5-2 3.9-4.8 5.3-6.3 4.2-4.6 5.5-7.8 4.1-10.4C197.9 45 179.1 33 175.8 33c-1.5 0-3.4.7-4.2 1.6z"/></svg>